<?xml version="1.0" encoding="UTF-8" standalone="no"?>
<!DOCTYPE svg PUBLIC "-//W3C//DTD SVG 1.1//EN"
 "http://www.w3.org/Graphics/SVG/1.1/DTD/svg11.dtd">
<!-- Generated by graphviz version 14.0.4 (20251115.1723)
 -->
<!-- Title: EntityRelationships Pages: 1 -->
<svg width="2185pt" height="709pt"
 viewBox="0.00 0.00 2185.00 709.00" xmlns="http://www.w3.org/2000/svg" xmlns:xlink="http://www.w3.org/1999/xlink">
<g id="graph0" class="graph" transform="scale(1 1) rotate(0) translate(4 704.5)">
<title>EntityRelationships</title>
<polygon fill="white" stroke="none" points="-4,4 -4,-704.5 2181,-704.5 2181,4 -4,4"/>
<g id="clust1" class="cluster">
<title>cluster_entity_hierarchy</title>
<polygon fill="lightyellow" stroke="black" points="1115,-8 1115,-685.5 1456,-685.5 1456,-8 1115,-8"/>
<text xml:space="preserve" text-anchor="middle" x="1285.5" y="-668.2" font-family="Times,serif" font-size="14.00">Entity Hierarchy</text>
</g>
<g id="clust2" class="cluster">
<title>cluster_prefabs</title>
<polygon fill="lightcyan" stroke="black" points="8,-158.75 8,-504.12 1107,-504.12 1107,-158.75 8,-158.75"/>
<text xml:space="preserve" text-anchor="middle" x="557.5" y="-486.82" font-family="Times,serif" font-size="14.00">Prefab Types (Builder/Factory Pattern)</text>
</g>
<g id="clust3" class="cluster">
<title>cluster_components</title>
<polygon fill="lavender" stroke="black" points="1464,-8 1464,-278.38 2169,-278.38 2169,-8 1464,-8"/>
<text xml:space="preserve" text-anchor="middle" x="1816.5" y="-261.07" font-family="Times,serif" font-size="14.00">Component Types</text>
</g>
<g id="clust4" class="cluster">
<title>cluster_legend</title>
<polygon fill="white" stroke="black" points="1673,-535.25 1673,-692.5 1959,-692.5 1959,-535.25 1673,-535.25"/>
<text xml:space="preserve" text-anchor="middle" x="1816" y="-675.2" font-family="Times,serif" font-size="14.00">Legend</text>
</g>
<!-- Entity -->
<g id="node1" class="node">
<title>Entity</title>
<path fill="lightcoral" stroke="black" d="M1274,-653C1274,-653 1192,-653 1192,-653 1186,-653 1180,-647 1180,-641 1180,-641 1180,-562.25 1180,-562.25 1180,-556.25 1186,-550.25 1192,-550.25 1192,-550.25 1274,-550.25 1274,-550.25 1280,-550.25 1286,-556.25 1286,-562.25 1286,-562.25 1286,-641 1286,-641 1286,-647 1280,-653 1274,-653"/>
<text xml:space="preserve" text-anchor="middle" x="1233" y="-635.7" font-family="Arial" font-size="14.00">Entity</text>
<text xml:space="preserve" text-anchor="middle" x="1233" y="-619.95" font-family="Arial" font-size="14.00">(abstract base)</text>
<text xml:space="preserve" text-anchor="middle" x="1233" y="-588.2" font-family="Arial" font-size="14.00">• name()</text>
<text xml:space="preserve" text-anchor="middle" x="1233" y="-572.45" font-family="Arial" font-size="14.00">• act()</text>
<text xml:space="preserve" text-anchor="middle" x="1233" y="-556.7" font-family="Arial" font-size="14.00">• observe()</text>
</g>
<!-- EntityWithLogging -->
<g id="node2" class="node">
<title>EntityWithLogging</title>
<path fill="lightblue" stroke="black" d="M1242.75,-358.75C1242.75,-358.75 1141.25,-358.75 1141.25,-358.75 1135.25,-358.75 1129.25,-352.75 1129.25,-346.75 1129.25,-346.75 1129.25,-299.5 1129.25,-299.5 1129.25,-293.5 1135.25,-287.5 1141.25,-287.5 1141.25,-287.5 1242.75,-287.5 1242.75,-287.5 1248.75,-287.5 1254.75,-293.5 1254.75,-299.5 1254.75,-299.5 1254.75,-346.75 1254.75,-346.75 1254.75,-352.75 1248.75,-358.75 1242.75,-358.75"/>
<text xml:space="preserve" text-anchor="middle" x="1192" y="-341.45" font-family="Arial" font-size="14.00">EntityWithLogging</text>
<text xml:space="preserve" text-anchor="middle" x="1192" y="-325.7" font-family="Arial" font-size="14.00">(extends Entity)</text>
<text xml:space="preserve" text-anchor="middle" x="1192" y="-293.95" font-family="Arial" font-size="14.00">• get_last_log()</text>
</g>
<!-- Entity&#45;&gt;EntityWithLogging -->
<g id="edge1" class="edge">
<title>Entity&#45;&gt;EntityWithLogging</title>
<path fill="none" stroke="black" d="M1224.36,-550.08C1221.9,-535.28 1219.28,-519.07 1217,-504.12 1210.08,-458.67 1202.93,-406.64 1198.07,-370.25"/>
<polygon fill="black" stroke="black" points="1201.56,-369.96 1196.77,-360.51 1194.62,-370.88 1201.56,-369.96"/>
<text xml:space="preserve" text-anchor="middle" x="1237.5" y="-515.75" font-family="Arial" font-size="10.00">extends</text>
</g>
<!-- EntityWithComponents -->
<g id="node3" class="node">
<title>EntityWithComponents</title>
<path fill="lightblue" stroke="black" d="M1368.38,-495.25C1368.38,-495.25 1237.62,-495.25 1237.62,-495.25 1231.62,-495.25 1225.62,-489.25 1225.62,-483.25 1225.62,-483.25 1225.62,-388.75 1225.62,-388.75 1225.62,-382.75 1231.62,-376.75 1237.62,-376.75 1237.62,-376.75 1368.38,-376.75 1368.38,-376.75 1374.38,-376.75 1380.38,-382.75 1380.38,-388.75 1380.38,-388.75 1380.38,-483.25 1380.38,-483.25 1380.38,-489.25 1374.38,-495.25 1368.38,-495.25"/>
<text xml:space="preserve" text-anchor="middle" x="1303" y="-477.95" font-family="Arial" font-size="14.00">EntityWithComponents</text>
<text xml:space="preserve" text-anchor="middle" x="1303" y="-462.2" font-family="Arial" font-size="14.00">(extends Entity)</text>
<text xml:space="preserve" text-anchor="middle" x="1303" y="-430.45" font-family="Arial" font-size="14.00">• get_component()</text>
<text xml:space="preserve" text-anchor="middle" x="1303" y="-414.7" font-family="Arial" font-size="14.00">• get_phase()</text>
<text xml:space="preserve" text-anchor="middle" x="1303" y="-398.95" font-family="Arial" font-size="14.00">• get_state()</text>
<text xml:space="preserve" text-anchor="middle" x="1303" y="-383.2" font-family="Arial" font-size="14.00">• set_state()</text>
</g>
<!-- Entity&#45;&gt;EntityWithComponents -->
<g id="edge2" class="edge">
<title>Entity&#45;&gt;EntityWithComponents</title>
<path fill="none" stroke="black" d="M1254.57,-550.2C1260.58,-536.16 1267.21,-520.67 1273.58,-505.77"/>
<polygon fill="black" stroke="black" points="1276.63,-507.54 1277.35,-496.97 1270.2,-504.78 1276.63,-507.54"/>
<text xml:space="preserve" text-anchor="middle" x="1287.35" y="-515.75" font-family="Arial" font-size="10.00">extends</text>
</g>
<!-- EntityAgentWithLogging -->
<g id="node5" class="node">
<title>EntityAgentWithLogging</title>
<path fill="lightgreen" stroke="black" d="M1320.75,-118.75C1320.75,-118.75 1135.25,-118.75 1135.25,-118.75 1129.25,-118.75 1123.25,-112.75 1123.25,-106.75 1123.25,-106.75 1123.25,-28 1123.25,-28 1123.25,-22 1129.25,-16 1135.25,-16 1135.25,-16 1320.75,-16 1320.75,-16 1326.75,-16 1332.75,-22 1332.75,-28 1332.75,-28 1332.75,-106.75 1332.75,-106.75 1332.75,-112.75 1326.75,-118.75 1320.75,-118.75"/>
<text xml:space="preserve" text-anchor="middle" x="1228" y="-101.45" font-family="Arial" font-size="14.00">EntityAgentWithLogging</text>
<text xml:space="preserve" text-anchor="middle" x="1228" y="-85.7" font-family="Arial" font-size="14.00">(concrete impl)</text>
<text xml:space="preserve" text-anchor="middle" x="1228" y="-53.95" font-family="Arial" font-size="14.00">• Extends EntityAgent</text>
<text xml:space="preserve" text-anchor="middle" x="1228" y="-38.2" font-family="Arial" font-size="14.00">• Implements EntityWithLogging</text>
<text xml:space="preserve" text-anchor="middle" x="1228" y="-22.45" font-family="Arial" font-size="14.00">• Component logging support</text>
</g>
<!-- EntityWithLogging&#45;&gt;EntityAgentWithLogging -->
<g id="edge5" class="edge">
<title>EntityWithLogging&#45;&gt;EntityAgentWithLogging</title>
<path fill="none" stroke="black" stroke-dasharray="5,2" d="M1155.19,-287.11C1153.45,-284.3 1151.94,-281.38 1150.75,-278.38 1131.13,-228.96 1132.34,-208.63 1150.75,-158.75 1154.7,-148.04 1160.56,-137.74 1167.3,-128.17"/>
<polygon fill="black" stroke="black" points="1169.9,-130.53 1173.1,-120.44 1164.3,-126.33 1169.9,-130.53"/>
<text xml:space="preserve" text-anchor="middle" x="1175.88" y="-214.62" font-family="Arial" font-size="10.00">implements</text>
</g>
<!-- EntityAgent -->
<g id="node4" class="node">
<title>EntityAgent</title>
<path fill="lightblue" stroke="black" d="M1436.38,-261.62C1436.38,-261.62 1221.62,-261.62 1221.62,-261.62 1215.62,-261.62 1209.62,-255.62 1209.62,-249.62 1209.62,-249.62 1209.62,-186.62 1209.62,-186.62 1209.62,-180.62 1215.62,-174.62 1221.62,-174.62 1221.62,-174.62 1436.38,-174.62 1436.38,-174.62 1442.38,-174.62 1448.38,-180.62 1448.38,-186.62 1448.38,-186.62 1448.38,-249.62 1448.38,-249.62 1448.38,-255.62 1442.38,-261.62 1436.38,-261.62"/>
<text xml:space="preserve" text-anchor="middle" x="1329" y="-244.32" font-family="Arial" font-size="14.00">EntityAgent</text>
<text xml:space="preserve" text-anchor="middle" x="1329" y="-228.57" font-family="Arial" font-size="14.00">(concrete impl)</text>
<text xml:space="preserve" text-anchor="middle" x="1329" y="-196.82" font-family="Arial" font-size="14.00">• Implements EntityWithComponents</text>
<text xml:space="preserve" text-anchor="middle" x="1329" y="-181.07" font-family="Arial" font-size="14.00">• Manages component lifecycle</text>
</g>
<!-- EntityWithComponents&#45;&gt;EntityAgent -->
<g id="edge3" class="edge">
<title>EntityWithComponents&#45;&gt;EntityAgent</title>
<path fill="none" stroke="black" d="M1310.07,-376.3C1313.94,-344.16 1318.7,-304.61 1322.48,-273.23"/>
<polygon fill="black" stroke="black" points="1325.93,-273.91 1323.65,-263.57 1318.98,-273.08 1325.93,-273.91"/>
<text xml:space="preserve" text-anchor="middle" x="1345.72" y="-319.62" font-family="Arial" font-size="10.00">implements</text>
</g>
<!-- EntityAgent&#45;&gt;EntityAgentWithLogging -->
<g id="edge4" class="edge">
<title>EntityAgent&#45;&gt;EntityAgentWithLogging</title>
<path fill="none" stroke="black" d="M1300.06,-174.5C1290.35,-160.21 1279.34,-143.99 1268.9,-128.62"/>
<polygon fill="black" stroke="black" points="1271.86,-126.73 1263.34,-120.43 1266.06,-130.67 1271.86,-126.73"/>
<text xml:space="preserve" text-anchor="middle" x="1298.78" y="-139.25" font-family="Arial" font-size="10.00">extends</text>
</g>
<!-- ContextComponent -->
<g id="node14" class="node">
<title>ContextComponent</title>
<path fill="lightblue" stroke="black" d="M1804.5,-118.75C1804.5,-118.75 1695.5,-118.75 1695.5,-118.75 1689.5,-118.75 1683.5,-112.75 1683.5,-106.75 1683.5,-106.75 1683.5,-28 1683.5,-28 1683.5,-22 1689.5,-16 1695.5,-16 1695.5,-16 1804.5,-16 1804.5,-16 1810.5,-16 1816.5,-22 1816.5,-28 1816.5,-28 1816.5,-106.75 1816.5,-106.75 1816.5,-112.75 1810.5,-118.75 1804.5,-118.75"/>
<text xml:space="preserve" text-anchor="middle" x="1750" y="-101.45" font-family="Arial" font-size="14.00">ContextComponent</text>
<text xml:space="preserve" text-anchor="middle" x="1750" y="-69.7" font-family="Arial" font-size="14.00">• pre_act()</text>
<text xml:space="preserve" text-anchor="middle" x="1750" y="-53.95" font-family="Arial" font-size="14.00">• post_act()</text>
<text xml:space="preserve" text-anchor="middle" x="1750" y="-38.2" font-family="Arial" font-size="14.00">• pre_observe()</text>
<text xml:space="preserve" text-anchor="middle" x="1750" y="-22.45" font-family="Arial" font-size="14.00">• post_observe()</text>
</g>
<!-- EntityAgent&#45;&gt;ContextComponent -->
<g id="edge22" class="edge">
<title>EntityAgent&#45;&gt;ContextComponent</title>
<path fill="none" stroke="blue" stroke-dasharray="5,2" d="M1390.07,-174.15C1413.47,-159.8 1441.09,-145.3 1468.25,-136.75 1552.79,-110.12 1585.45,-146.38 1672.51,-119.06"/>
<polygon fill="blue" stroke="blue" points="1673.6,-122.39 1681.97,-115.89 1671.38,-115.75 1673.6,-122.39"/>
<text xml:space="preserve" text-anchor="middle" x="1488.12" y="-139.25" font-family="Arial" font-size="10.00">manages</text>
</g>
<!-- ActingComponent -->
<g id="node15" class="node">
<title>ActingComponent</title>
<path fill="lightblue" stroke="black" d="M1969.25,-103C1969.25,-103 1846.75,-103 1846.75,-103 1840.75,-103 1834.75,-97 1834.75,-91 1834.75,-91 1834.75,-43.75 1834.75,-43.75 1834.75,-37.75 1840.75,-31.75 1846.75,-31.75 1846.75,-31.75 1969.25,-31.75 1969.25,-31.75 1975.25,-31.75 1981.25,-37.75 1981.25,-43.75 1981.25,-43.75 1981.25,-91 1981.25,-91 1981.25,-97 1975.25,-103 1969.25,-103"/>
<text xml:space="preserve" text-anchor="middle" x="1908" y="-85.7" font-family="Arial" font-size="14.00">ActingComponent</text>
<text xml:space="preserve" text-anchor="middle" x="1908" y="-53.95" font-family="Arial" font-size="14.00">Privileged component</text>
<text xml:space="preserve" text-anchor="middle" x="1908" y="-38.2" font-family="Arial" font-size="14.00">that decides actions</text>
</g>
<!-- EntityAgent&#45;&gt;ActingComponent -->
<g id="edge23" class="edge">
<title>EntityAgent&#45;&gt;ActingComponent</title>
<path fill="none" stroke="blue" stroke-dasharray="5,2" d="M1415.77,-174.22C1430.27,-168.28 1445.37,-162.83 1460,-158.75 1497.81,-148.2 1596.23,-141.04 1635.25,-136.75 1719.89,-127.45 1745.24,-145.74 1826,-118.75 1833.74,-116.17 1841.5,-112.73 1849.01,-108.88"/>
<polygon fill="blue" stroke="blue" points="1850.63,-111.98 1857.72,-104.11 1847.27,-105.84 1850.63,-111.98"/>
<text xml:space="preserve" text-anchor="middle" x="1655.12" y="-139.25" font-family="Arial" font-size="10.00">manages</text>
</g>
<!-- ContextProcessorComponent -->
<g id="node16" class="node">
<title>ContextProcessorComponent</title>
<path fill="lightblue" stroke="black" d="M1653.88,-103C1653.88,-103 1484.12,-103 1484.12,-103 1478.12,-103 1472.12,-97 1472.12,-91 1472.12,-91 1472.12,-43.75 1472.12,-43.75 1472.12,-37.75 1478.12,-31.75 1484.12,-31.75 1484.12,-31.75 1653.88,-31.75 1653.88,-31.75 1659.88,-31.75 1665.88,-37.75 1665.88,-43.75 1665.88,-43.75 1665.88,-91 1665.88,-91 1665.88,-97 1659.88,-103 1653.88,-103"/>
<text xml:space="preserve" text-anchor="middle" x="1569" y="-85.7" font-family="Arial" font-size="14.00">ContextProcessorComponent</text>
<text xml:space="preserve" text-anchor="middle" x="1569" y="-53.95" font-family="Arial" font-size="14.00">Processes context from</text>
<text xml:space="preserve" text-anchor="middle" x="1569" y="-38.2" font-family="Arial" font-size="14.00">EntityWithComponents</text>
</g>
<!-- EntityAgent&#45;&gt;ContextProcessorComponent -->
<g id="edge24" class="edge">
<title>EntityAgent&#45;&gt;ContextProcessorComponent</title>
<path fill="none" stroke="blue" stroke-dasharray="5,2" d="M1354.62,-174.41C1364.78,-160.62 1377.56,-146.41 1392.25,-136.75 1418.28,-119.63 1430.69,-129.32 1460,-118.75 1468.88,-115.55 1478.03,-111.9 1487.07,-108.07"/>
<polygon fill="blue" stroke="blue" points="1488.45,-111.29 1496.23,-104.1 1485.66,-104.86 1488.45,-111.29"/>
<text xml:space="preserve" text-anchor="middle" x="1412.12" y="-139.25" font-family="Arial" font-size="10.00">manages</text>
</g>
<!-- Prefab -->
<g id="node6" class="node">
<title>Prefab</title>
<path fill="orange" stroke="black" d="M583,-471.62C583,-471.62 501,-471.62 501,-471.62 495,-471.62 489,-465.62 489,-459.62 489,-459.62 489,-412.38 489,-412.38 489,-406.38 495,-400.38 501,-400.38 501,-400.38 583,-400.38 583,-400.38 589,-400.38 595,-406.38 595,-412.38 595,-412.38 595,-459.62 595,-459.62 595,-465.62 589,-471.62 583,-471.62"/>
<text xml:space="preserve" text-anchor="middle" x="542" y="-454.32" font-family="Arial" font-size="14.00">Prefab</text>
<text xml:space="preserve" text-anchor="middle" x="542" y="-438.57" font-family="Arial" font-size="14.00">(abstract base)</text>
<text xml:space="preserve" text-anchor="middle" x="542" y="-406.82" font-family="Arial" font-size="14.00">• build()</text>
</g>
<!-- BasicPrefab -->
<g id="node7" class="node">
<title>BasicPrefab</title>
<path fill="lightblue" stroke="black" d="M701.62,-269.5C701.62,-269.5 572.38,-269.5 572.38,-269.5 566.38,-269.5 560.38,-263.5 560.38,-257.5 560.38,-257.5 560.38,-178.75 560.38,-178.75 560.38,-172.75 566.38,-166.75 572.38,-166.75 572.38,-166.75 701.62,-166.75 701.62,-166.75 707.62,-166.75 713.62,-172.75 713.62,-178.75 713.62,-178.75 713.62,-257.5 713.62,-257.5 713.62,-263.5 707.62,-269.5 701.62,-269.5"/>
<text xml:space="preserve" text-anchor="middle" x="637" y="-252.2" font-family="Arial" font-size="14.00">basic</text>
<text xml:space="preserve" text-anchor="middle" x="637" y="-220.45" font-family="Arial" font-size="14.00">Three key questions:</text>
<text xml:space="preserve" text-anchor="middle" x="637" y="-204.7" font-family="Arial" font-size="14.00">• What situation?</text>
<text xml:space="preserve" text-anchor="middle" x="637" y="-188.95" font-family="Arial" font-size="14.00">• What kind of person?</text>
<text xml:space="preserve" text-anchor="middle" x="637" y="-173.2" font-family="Arial" font-size="14.00">• What would I do?</text>
</g>
<!-- Prefab&#45;&gt;BasicPrefab -->
<g id="edge6" class="edge">
<title>Prefab&#45;&gt;BasicPrefab</title>
<path fill="none" stroke="black" d="M557.26,-400.32C571.51,-367.93 593.1,-318.89 610.22,-279.99"/>
<polygon fill="black" stroke="black" points="613.26,-281.77 614.08,-271.21 606.85,-278.95 613.26,-281.77"/>
<text xml:space="preserve" text-anchor="middle" x="623.52" y="-319.62" font-family="Arial" font-size="10.00">extends</text>
</g>
<!-- BasicWithPlanPrefab -->
<g id="node8" class="node">
<title>BasicWithPlanPrefab</title>
<path fill="lightblue" stroke="black" d="M908.25,-245.88C908.25,-245.88 743.75,-245.88 743.75,-245.88 737.75,-245.88 731.75,-239.88 731.75,-233.88 731.75,-233.88 731.75,-202.38 731.75,-202.38 731.75,-196.38 737.75,-190.38 743.75,-190.38 743.75,-190.38 908.25,-190.38 908.25,-190.38 914.25,-190.38 920.25,-196.38 920.25,-202.38 920.25,-202.38 920.25,-233.88 920.25,-233.88 920.25,-239.88 914.25,-245.88 908.25,-245.88"/>
<text xml:space="preserve" text-anchor="middle" x="826" y="-228.57" font-family="Arial" font-size="14.00">basic_with_plan</text>
<text xml:space="preserve" text-anchor="middle" x="826" y="-196.82" font-family="Arial" font-size="14.00">Basic + Planning component</text>
</g>
<!-- Prefab&#45;&gt;BasicWithPlanPrefab -->
<g id="edge7" class="edge">
<title>Prefab&#45;&gt;BasicWithPlanPrefab</title>
<path fill="none" stroke="black" d="M589.84,-399.89C607.26,-387.02 627.07,-372.3 645,-358.75 692.14,-323.13 745.67,-281.71 782.21,-253.29"/>
<polygon fill="black" stroke="black" points="784.18,-256.19 789.93,-247.29 779.88,-250.67 784.18,-256.19"/>
<text xml:space="preserve" text-anchor="middle" x="751.59" y="-319.62" font-family="Arial" font-size="10.00">extends</text>
</g>
<!-- BasicScriptedPrefab -->
<g id="node9" class="node">
<title>BasicScriptedPrefab</title>
<path fill="lightblue" stroke="black" d="M1087.38,-245.88C1087.38,-245.88 950.62,-245.88 950.62,-245.88 944.62,-245.88 938.62,-239.88 938.62,-233.88 938.62,-233.88 938.62,-202.38 938.62,-202.38 938.62,-196.38 944.62,-190.38 950.62,-190.38 950.62,-190.38 1087.38,-190.38 1087.38,-190.38 1093.38,-190.38 1099.38,-196.38 1099.38,-202.38 1099.38,-202.38 1099.38,-233.88 1099.38,-233.88 1099.38,-239.88 1093.38,-245.88 1087.38,-245.88"/>
<text xml:space="preserve" text-anchor="middle" x="1019" y="-228.57" font-family="Arial" font-size="14.00">basic_scripted</text>
<text xml:space="preserve" text-anchor="middle" x="1019" y="-196.82" font-family="Arial" font-size="14.00">Basic + Scripted actions</text>
</g>
<!-- Prefab&#45;&gt;BasicScriptedPrefab -->
<g id="edge8" class="edge">
<title>Prefab&#45;&gt;BasicScriptedPrefab</title>
<path fill="none" stroke="black" d="M595.16,-420.04C642.54,-406.1 713.42,-383.75 773,-358.75 844.92,-328.57 861.67,-317.74 929,-278.38 942.65,-270.4 957.09,-261.23 970.31,-252.53"/>
<polygon fill="black" stroke="black" points="972.04,-255.59 978.44,-247.14 968.17,-249.75 972.04,-255.59"/>
<text xml:space="preserve" text-anchor="middle" x="927.46" y="-319.62" font-family="Arial" font-size="10.00">extends</text>
</g>
<!-- MinimalPrefab -->
<g id="node10" class="node">
<title>MinimalPrefab</title>
<path fill="lightblue" stroke="black" d="M149.88,-269.5C149.88,-269.5 28.12,-269.5 28.12,-269.5 22.12,-269.5 16.12,-263.5 16.12,-257.5 16.12,-257.5 16.12,-178.75 16.12,-178.75 16.12,-172.75 22.12,-166.75 28.12,-166.75 28.12,-166.75 149.88,-166.75 149.88,-166.75 155.88,-166.75 161.88,-172.75 161.88,-178.75 161.88,-178.75 161.88,-257.5 161.88,-257.5 161.88,-263.5 155.88,-269.5 149.88,-269.5"/>
<text xml:space="preserve" text-anchor="middle" x="89" y="-252.2" font-family="Arial" font-size="14.00">minimal</text>
<text xml:space="preserve" text-anchor="middle" x="89" y="-220.45" font-family="Arial" font-size="14.00">Minimal components:</text>
<text xml:space="preserve" text-anchor="middle" x="89" y="-204.7" font-family="Arial" font-size="14.00">• Instructions</text>
<text xml:space="preserve" text-anchor="middle" x="89" y="-188.95" font-family="Arial" font-size="14.00">• Memory</text>
<text xml:space="preserve" text-anchor="middle" x="89" y="-173.2" font-family="Arial" font-size="14.00">• Observations</text>
</g>
<!-- Prefab&#45;&gt;MinimalPrefab -->
<g id="edge9" class="edge">
<title>Prefab&#45;&gt;MinimalPrefab</title>
<path fill="none" stroke="black" d="M488.69,-420.66C441.23,-407.12 370.4,-385.02 311.5,-358.75 245.8,-329.45 231.46,-317.36 171,-278.38 169.8,-277.6 168.59,-276.81 167.37,-276.02"/>
<polygon fill="black" stroke="black" points="169.5,-273.23 159.24,-270.6 165.62,-279.06 169.5,-273.23"/>
<text xml:space="preserve" text-anchor="middle" x="328.75" y="-319.62" font-family="Arial" font-size="10.00">extends</text>
</g>
<!-- ConversationalPrefab -->
<g id="node11" class="node">
<title>ConversationalPrefab</title>
<path fill="lightblue" stroke="black" d="M322,-253.75C322,-253.75 192,-253.75 192,-253.75 186,-253.75 180,-247.75 180,-241.75 180,-241.75 180,-194.5 180,-194.5 180,-188.5 186,-182.5 192,-182.5 192,-182.5 322,-182.5 322,-182.5 328,-182.5 334,-188.5 334,-194.5 334,-194.5 334,-241.75 334,-241.75 334,-247.75 328,-253.75 322,-253.75"/>
<text xml:space="preserve" text-anchor="middle" x="257" y="-236.45" font-family="Arial" font-size="14.00">conversational</text>
<text xml:space="preserve" text-anchor="middle" x="257" y="-204.7" font-family="Arial" font-size="14.00">Specialized for</text>
<text xml:space="preserve" text-anchor="middle" x="257" y="-188.95" font-family="Arial" font-size="14.00">conversation dynamics</text>
</g>
<!-- Prefab&#45;&gt;ConversationalPrefab -->
<g id="edge10" class="edge">
<title>Prefab&#45;&gt;ConversationalPrefab</title>
<path fill="none" stroke="black" d="M494.7,-400.02C477.3,-387.1 457.47,-372.31 439.5,-358.75 396.2,-326.08 347.41,-288.72 311.18,-260.88"/>
<polygon fill="black" stroke="black" points="313.51,-258.25 303.45,-254.93 309.24,-263.8 313.51,-258.25"/>
<text xml:space="preserve" text-anchor="middle" x="456.75" y="-319.62" font-family="Arial" font-size="10.00">extends</text>
</g>
<!-- FakeAssistantPrefab -->
<g id="node12" class="node">
<title>FakeAssistantPrefab</title>
<path fill="lightblue" stroke="black" d="M530.38,-253.75C530.38,-253.75 363.62,-253.75 363.62,-253.75 357.62,-253.75 351.62,-247.75 351.62,-241.75 351.62,-241.75 351.62,-194.5 351.62,-194.5 351.62,-188.5 357.62,-182.5 363.62,-182.5 363.62,-182.5 530.38,-182.5 530.38,-182.5 536.38,-182.5 542.38,-188.5 542.38,-194.5 542.38,-194.5 542.38,-241.75 542.38,-241.75 542.38,-247.75 536.38,-253.75 530.38,-253.75"/>
<text xml:space="preserve" text-anchor="middle" x="447" y="-236.45" font-family="Arial" font-size="14.00">fake_assistant_with_</text>
<text xml:space="preserve" text-anchor="middle" x="447" y="-220.7" font-family="Arial" font-size="14.00">configurable_system_prompt</text>
<text xml:space="preserve" text-anchor="middle" x="447" y="-188.95" font-family="Arial" font-size="14.00">Simulates AI assistant</text>
</g>
<!-- Prefab&#45;&gt;FakeAssistantPrefab -->
<g id="edge11" class="edge">
<title>Prefab&#45;&gt;FakeAssistantPrefab</title>
<path fill="none" stroke="black" d="M526.74,-400.32C510.51,-363.45 484.78,-304.98 466.96,-264.48"/>
<polygon fill="black" stroke="black" points="470.22,-263.21 462.99,-255.47 463.82,-266.03 470.22,-263.21"/>
<text xml:space="preserve" text-anchor="middle" x="523.05" y="-319.62" font-family="Arial" font-size="10.00">extends</text>
</g>
<!-- BasicPrefab&#45;&gt;EntityAgentWithLogging -->
<g id="edge16" class="edge">
<title>BasicPrefab&#45;&gt;EntityAgentWithLogging</title>
<path fill="none" stroke="red" stroke-width="2" d="M707.02,-166.26C712.3,-163.47 717.65,-160.93 723,-158.75 849.3,-107.32 1005.17,-85.08 1110.06,-75.51"/>
<polygon fill="red" stroke="red" stroke-width="2" points="1110.24,-79.01 1119.9,-74.65 1109.63,-72.04 1110.24,-79.01"/>
<text xml:space="preserve" text-anchor="middle" x="804.7" y="-139.25" font-family="Arial" font-size="10.00">build() returns</text>
</g>
<!-- BasicWithPlanPrefab&#45;&gt;EntityAgentWithLogging -->
<g id="edge17" class="edge">
<title>BasicWithPlanPrefab&#45;&gt;EntityAgentWithLogging</title>
<path fill="none" stroke="red" stroke-width="2" d="M869.48,-189.98C887.72,-179.32 909.44,-167.55 930,-158.75 987.87,-133.97 1054.75,-113.04 1110.47,-97.58"/>
<polygon fill="red" stroke="red" stroke-width="2" points="1111.28,-100.99 1119.99,-94.96 1109.42,-94.24 1111.28,-100.99"/>
<text xml:space="preserve" text-anchor="middle" x="1015.03" y="-139.25" font-family="Arial" font-size="10.00">build() returns</text>
</g>
<!-- BasicScriptedPrefab&#45;&gt;EntityAgentWithLogging -->
<g id="edge18" class="edge">
<title>BasicScriptedPrefab&#45;&gt;EntityAgentWithLogging</title>
<path fill="none" stroke="red" stroke-width="2" d="M1033.48,-190.08C1043.73,-172.99 1058.8,-151.45 1076.75,-136.75 1087.33,-128.08 1099.19,-120.28 1111.49,-113.32"/>
<polygon fill="red" stroke="red" stroke-width="2" points="1113.09,-116.43 1120.22,-108.6 1109.76,-110.27 1113.09,-116.43"/>
<text xml:space="preserve" text-anchor="middle" x="1106.38" y="-139.25" font-family="Arial" font-size="10.00">build() returns</text>
</g>
<!-- MinimalPrefab&#45;&gt;EntityAgentWithLogging -->
<g id="edge19" class="edge">
<title>MinimalPrefab&#45;&gt;EntityAgentWithLogging</title>
<path fill="none" stroke="red" stroke-width="2" d="M155.1,-166.36C160.33,-163.51 165.66,-160.92 171,-158.75 230.06,-134.73 249.41,-144.02 312.75,-136.75 598.26,-103.98 935.77,-83.45 1110.29,-74.17"/>
<polygon fill="red" stroke="red" stroke-width="2" points="1110.26,-77.68 1120.06,-73.66 1109.89,-70.69 1110.26,-77.68"/>
<text xml:space="preserve" text-anchor="middle" x="342.38" y="-139.25" font-family="Arial" font-size="10.00">build() returns</text>
</g>
<!-- ConversationalPrefab&#45;&gt;EntityAgentWithLogging -->
<g id="edge20" class="edge">
<title>ConversationalPrefab&#45;&gt;EntityAgentWithLogging</title>
<path fill="none" stroke="red" stroke-width="2" d="M299.85,-182.22C312.99,-173.17 327.96,-164.39 343,-158.75 418.35,-130.47 442.74,-145.52 522.75,-136.75 729.08,-114.13 969.8,-91.62 1109.94,-78.91"/>
<polygon fill="red" stroke="red" stroke-width="2" points="1110.11,-82.41 1119.75,-78.02 1109.48,-75.43 1110.11,-82.41"/>
<text xml:space="preserve" text-anchor="middle" x="552.38" y="-139.25" font-family="Arial" font-size="10.00">build() returns</text>
</g>
<!-- FakeAssistantPrefab&#45;&gt;EntityAgentWithLogging -->
<g id="edge21" class="edge">
<title>FakeAssistantPrefab&#45;&gt;EntityAgentWithLogging</title>
<path fill="none" stroke="red" stroke-width="2" d="M500.85,-182.02C516.49,-173.19 533.96,-164.58 551,-158.75 739.76,-94.17 972.83,-75.44 1110.43,-70.19"/>
<polygon fill="red" stroke="red" stroke-width="2" points="1110.14,-73.7 1120.01,-69.84 1109.89,-66.7 1110.14,-73.7"/>
<text xml:space="preserve" text-anchor="middle" x="651.27" y="-139.25" font-family="Arial" font-size="10.00">build() returns</text>
</g>
<!-- BaseComponent -->
<g id="node13" class="node">
<title>BaseComponent</title>
<path fill="lightblue" stroke="black" d="M1872.75,-245.88C1872.75,-245.88 1735.25,-245.88 1735.25,-245.88 1729.25,-245.88 1723.25,-239.88 1723.25,-233.88 1723.25,-233.88 1723.25,-202.38 1723.25,-202.38 1723.25,-196.38 1729.25,-190.38 1735.25,-190.38 1735.25,-190.38 1872.75,-190.38 1872.75,-190.38 1878.75,-190.38 1884.75,-196.38 1884.75,-202.38 1884.75,-202.38 1884.75,-233.88 1884.75,-233.88 1884.75,-239.88 1878.75,-245.88 1872.75,-245.88"/>
<text xml:space="preserve" text-anchor="middle" x="1804" y="-228.57" font-family="Arial" font-size="14.00">BaseComponent</text>
<text xml:space="preserve" text-anchor="middle" x="1804" y="-196.82" font-family="Arial" font-size="14.00">Base for all components</text>
</g>
<!-- BaseComponent&#45;&gt;ContextComponent -->
<g id="edge12" class="edge">
<title>BaseComponent&#45;&gt;ContextComponent</title>
<path fill="none" stroke="black" d="M1794.22,-190.19C1788.11,-173.36 1779.99,-150.98 1772.37,-129.99"/>
<polygon fill="black" stroke="black" points="1775.66,-128.81 1768.96,-120.6 1769.08,-131.2 1775.66,-128.81"/>
<text xml:space="preserve" text-anchor="middle" x="1795.87" y="-139.25" font-family="Arial" font-size="10.00">extends</text>
</g>
<!-- BaseComponent&#45;&gt;ActingComponent -->
<g id="edge13" class="edge">
<title>BaseComponent&#45;&gt;ActingComponent</title>
<path fill="none" stroke="black" d="M1822.83,-190.19C1837.94,-168.58 1859.45,-137.82 1877.07,-112.61"/>
<polygon fill="black" stroke="black" points="1879.89,-114.69 1882.75,-104.49 1874.15,-110.68 1879.89,-114.69"/>
<text xml:space="preserve" text-anchor="middle" x="1876.37" y="-139.25" font-family="Arial" font-size="10.00">extends</text>
</g>
<!-- BaseComponent&#45;&gt;ContextProcessorComponent -->
<g id="edge14" class="edge">
<title>BaseComponent&#45;&gt;ContextProcessorComponent</title>
<path fill="none" stroke="black" d="M1761.17,-190.01C1725.63,-167.52 1674.52,-135.17 1633.94,-109.48"/>
<polygon fill="black" stroke="black" points="1636,-106.64 1625.68,-104.25 1632.26,-112.56 1636,-106.64"/>
<text xml:space="preserve" text-anchor="middle" x="1710.8" y="-139.25" font-family="Arial" font-size="10.00">extends</text>
</g>
<!-- ComponentWithLogging -->
<g id="node17" class="node">
<title>ComponentWithLogging</title>
<path fill="lightblue" stroke="black" d="M2149.12,-103C2149.12,-103 2010.88,-103 2010.88,-103 2004.88,-103 1998.88,-97 1998.88,-91 1998.88,-91 1998.88,-43.75 1998.88,-43.75 1998.88,-37.75 2004.88,-31.75 2010.88,-31.75 2010.88,-31.75 2149.12,-31.75 2149.12,-31.75 2155.12,-31.75 2161.12,-37.75 2161.12,-43.75 2161.12,-43.75 2161.12,-91 2161.12,-91 2161.12,-97 2155.12,-103 2149.12,-103"/>
<text xml:space="preserve" text-anchor="middle" x="2080" y="-85.7" font-family="Arial" font-size="14.00">ComponentWithLogging</text>
<text xml:space="preserve" text-anchor="middle" x="2080" y="-53.95" font-family="Arial" font-size="14.00">Adds logging channel</text>
<text xml:space="preserve" text-anchor="middle" x="2080" y="-38.2" font-family="Arial" font-size="14.00">support</text>
</g>
<!-- BaseComponent&#45;&gt;ComponentWithLogging -->
<g id="edge15" class="edge">
<title>BaseComponent&#45;&gt;ComponentWithLogging</title>
<path fill="none" stroke="black" stroke-dasharray="5,2" d="M1856.29,-189.89C1893.66,-170.33 1945.08,-143.2 1990,-118.75 1995.99,-115.49 2002.18,-112.09 2008.39,-108.66"/>
<polygon fill="black" stroke="black" points="2009.76,-111.9 2016.81,-103.99 2006.37,-105.78 2009.76,-111.9"/>
<text xml:space="preserve" text-anchor="middle" x="1971.82" y="-139.25" font-family="Arial" font-size="10.00">extends</text>
</g>
<!-- legend -->
<g id="node18" class="node">
<title>legend</title>
<path fill="white" stroke="none" d="M1938.75,-660C1938.75,-660 1693.25,-660 1693.25,-660 1687.25,-660 1681.25,-654 1681.25,-648 1681.25,-648 1681.25,-555.25 1681.25,-555.25 1681.25,-549.25 1687.25,-543.25 1693.25,-543.25 1693.25,-543.25 1938.75,-543.25 1938.75,-543.25 1944.75,-543.25 1950.75,-549.25 1950.75,-555.25 1950.75,-555.25 1950.75,-648 1950.75,-648 1950.75,-654 1944.75,-660 1938.75,-660"/>
<polygon fill="none" stroke="black" points="1689.25,-634.25 1689.25,-656 1772.5,-656 1772.5,-634.25 1689.25,-634.25"/>
<text xml:space="preserve" text-anchor="start" x="1699" y="-640.7" font-family="Arial" font-weight="bold" font-size="14.00">Line Style</text>
<polygon fill="none" stroke="black" points="1772.5,-634.25 1772.5,-656 1942.75,-656 1942.75,-634.25 1772.5,-634.25"/>
<text xml:space="preserve" text-anchor="start" x="1829.88" y="-640.7" font-family="Arial" font-weight="bold" font-size="14.00">Meaning</text>
<polygon fill="none" stroke="black" points="1689.25,-612.5 1689.25,-634.25 1772.5,-634.25 1772.5,-612.5 1689.25,-612.5"/>
<text xml:space="preserve" text-anchor="start" x="1715.88" y="-617.95" font-family="Arial" font-size="14.00">Solid</text>
<polygon fill="none" stroke="black" points="1772.5,-612.5 1772.5,-634.25 1942.75,-634.25 1942.75,-612.5 1772.5,-612.5"/>
<text xml:space="preserve" text-anchor="start" x="1775.5" y="-617.95" font-family="Arial" font-size="14.00">Inheritance/Implementation</text>
<polygon fill="none" stroke="black" points="1689.25,-590.75 1689.25,-612.5 1772.5,-612.5 1772.5,-590.75 1689.25,-590.75"/>
<text xml:space="preserve" text-anchor="start" x="1707.62" y="-596.2" font-family="Arial" font-size="14.00">Dashed</text>
<polygon fill="none" stroke="black" points="1772.5,-590.75 1772.5,-612.5 1942.75,-612.5 1942.75,-590.75 1772.5,-590.75"/>
<text xml:space="preserve" text-anchor="start" x="1805.88" y="-596.2" font-family="Arial" font-size="14.00">Association/Uses</text>
<polygon fill="none" stroke="black" points="1689.25,-569 1689.25,-590.75 1772.5,-590.75 1772.5,-569 1689.25,-569"/>
<text xml:space="preserve" text-anchor="start" x="1703.12" y="-574.45" font-family="Arial" font-size="14.00" fill="red">Red Bold</text>
<polygon fill="none" stroke="black" points="1772.5,-569 1772.5,-590.75 1942.75,-590.75 1942.75,-569 1772.5,-569"/>
<text xml:space="preserve" text-anchor="start" x="1790.88" y="-574.45" font-family="Arial" font-size="14.00">Factory Pattern (build)</text>
<polygon fill="none" stroke="black" points="1689.25,-547.25 1689.25,-569 1772.5,-569 1772.5,-547.25 1689.25,-547.25"/>
<text xml:space="preserve" text-anchor="start" x="1692.25" y="-552.7" font-family="Arial" font-size="14.00" fill="blue">Blue Dashed</text>
<polygon fill="none" stroke="black" points="1772.5,-547.25 1772.5,-569 1942.75,-569 1942.75,-547.25 1772.5,-547.25"/>
<text xml:space="preserve" text-anchor="start" x="1801" y="-552.7" font-family="Arial" font-size="14.00">Manages/Contains</text>
</g>
</g>
</svg>
